<?xml version="1.0" standalone="no"?>
<!DOCTYPE svg PUBLIC "-//W3C//DTD SVG 20010904//EN"
 "http://www.w3.org/TR/2001/REC-SVG-20010904/DTD/svg10.dtd">
<svg version="1.0" xmlns="http://www.w3.org/2000/svg"
 width="450.000000pt" height="452.000000pt" viewBox="0 0 450.000000 452.000000"
 preserveAspectRatio="xMidYMid meet">

<g transform="translate(0.000000,452.000000) scale(0.100000,-0.100000)"
fill="#000000" stroke="none">
<path d="M2963 3860 c-31 -66 -60 -120 -65 -120 -4 0 -60 18 -124 40 -204 70
-298 85 -539 85 -180 -1 -225 -4 -315 -24 -437 -94 -789 -332 -1047 -707 -110
-160 -216 -426 -254 -640 -40 -222 -27 -509 32 -724 29 -101 92 -259 140 -350
129 -239 358 -484 585 -626 41 -26 77 -44 80 -41 10 10 194 400 194 411 0 7
-14 20 -30 29 -17 10 -68 49 -114 88 -358 294 -517 772 -405 1214 115 453 473
797 924 886 105 21 350 18 450 -5 91 -21 215 -65 215 -76 0 -4 -67 -144 -149
-311 -81 -167 -167 -344 -191 -394 -24 -49 -90 -187 -148 -305 -101 -208 -142
-297 -142 -306 0 -3 44 -3 97 -2 l97 3 228 470 c597 1231 728 1505 728 1514 0
7 -35 11 -95 11 l-95 0 -57 -120z"/>
<path d="M3178 3483 c-15 -32 -60 -127 -101 -212 l-75 -155 69 -75 c86 -93
120 -162 127 -254 10 -143 -52 -265 -163 -322 -56 -29 -64 -30 -213 -33 l-154
-4 -97 -201 c-54 -111 -101 -212 -105 -224 l-7 -22 263 -3 263 -3 51 -27 c120
-63 182 -213 153 -372 -15 -83 -45 -130 -149 -230 -245 -236 -591 -362 -903
-327 -53 6 -100 11 -104 11 -39 1 -29 27 187 474 121 251 220 461 220 466 0 6
-40 10 -93 10 l-94 0 -86 -177 c-47 -98 -141 -290 -208 -428 -66 -137 -149
-308 -184 -380 -35 -71 -108 -224 -164 -338 -55 -114 -101 -212 -101 -217 0
-12 169 -13 187 -2 6 4 23 34 38 67 14 33 32 70 40 82 l14 21 73 -18 c177 -46
455 -54 654 -20 559 96 1034 491 1253 1042 42 106 87 296 101 427 24 219 -7
496 -80 707 -62 179 -201 428 -295 530 -5 6 -30 35 -55 64 -53 63 -207 200
-225 200 -6 0 -23 -26 -37 -57z"/>
</g>
</svg>
