<?xml version="1.0" standalone="no"?>
<!DOCTYPE svg PUBLIC "-//W3C//DTD SVG 20010904//EN"
 "http://www.w3.org/TR/2001/REC-SVG-20010904/DTD/svg10.dtd">
<svg version="1.0" xmlns="http://www.w3.org/2000/svg"
 width="1376.000000pt" height="768.000000pt" viewBox="0 0 1376.000000 768.000000"
 preserveAspectRatio="xMidYMid meet">

<g transform="translate(0.000000,768.000000) scale(0.100000,-0.100000)"
fill="#000000" stroke="none">
<path d="M4175 5490 c-33 -66 -63 -120 -67 -120 -3 0 -42 14 -85 30 -181 70
-365 102 -578 102 -615 -1 -1176 -352 -1455 -907 -381 -762 -142 -1668 568
-2146 57 -38 106 -69 110 -69 6 1 149 297 189 391 11 28 10 29 -55 76 -102 72
-250 226 -319 331 -243 369 -269 818 -70 1206 265 519 857 768 1399 589 44
-14 82 -32 85 -39 2 -6 -96 -218 -218 -471 -391 -806 -409 -844 -409 -848 0
-3 43 -5 95 -5 52 0 95 -2 95 -5 0 -12 -70 -157 -562 -1165 -61 -124 -125
-258 -144 -297 l-33 -73 97 0 98 0 42 86 c33 66 46 84 60 80 256 -75 610 -75
870 0 276 80 515 223 722 433 229 232 380 513 452 844 20 89 23 131 23 327 0
252 -12 332 -81 539 -94 280 -306 588 -526 761 l-53 42 -97 -201 c-53 -110
-99 -209 -102 -218 -4 -13 13 -38 57 -85 111 -118 151 -228 127 -350 -22 -115
-76 -190 -168 -235 -52 -25 -67 -27 -208 -31 l-152 -4 -106 -219 c-58 -120
-106 -220 -106 -223 0 -3 120 -6 268 -8 l267 -3 53 -29 c30 -17 67 -47 83 -67
53 -67 63 -104 64 -224 0 -104 -2 -113 -30 -165 -63 -115 -233 -258 -415 -350
-188 -94 -337 -126 -558 -117 -141 5 -182 12 -182 29 0 5 97 211 216 456 119
246 218 453 221 460 4 9 -18 12 -91 12 -53 0 -96 2 -96 5 0 3 109 229 241 502
576 1188 719 1484 719 1488 0 3 -44 5 -98 5 l-98 0 -59 -120z"/>
<path d="M6107 4279 c-117 -28 -240 -125 -290 -230 -125 -266 7 -573 278 -643
76 -20 214 -20 290 -1 198 52 325 220 325 430 0 130 -39 233 -121 320 -89 94
-198 136 -354 134 -49 -1 -107 -5 -128 -10z m250 -150 c117 -43 186 -150 186
-289 0 -97 -26 -164 -87 -226 -67 -67 -129 -88 -235 -82 -117 7 -194 54 -246
150 -25 45 -30 67 -33 145 -4 82 -2 97 22 150 40 86 97 136 186 164 51 15 148
9 207 -12z"/>
<path d="M10461 4275 c-217 -61 -348 -266 -319 -502 15 -129 107 -267 215
-325 88 -48 155 -61 280 -56 103 5 118 8 188 41 257 122 333 461 156 691 -47
61 -90 93 -176 132 -52 24 -75 28 -175 31 -80 2 -131 -2 -169 -12z m246 -140
c64 -19 136 -82 171 -149 22 -44 26 -64 27 -141 0 -77 -4 -98 -26 -146 -51
-109 -148 -169 -273 -169 -84 0 -146 23 -205 76 -69 62 -95 125 -95 234 0 125
41 205 135 266 71 45 174 56 266 29z"/>
<path d="M6920 4263 c-24 -12 -39 -29 -47 -53 -15 -45 -18 -678 -3 -732 6 -20
22 -46 37 -58 24 -19 39 -20 252 -20 171 0 242 4 286 15 123 32 185 106 185
222 0 101 -35 165 -114 205 l-39 20 29 18 c42 26 70 60 84 104 25 77 -9 193
-69 235 -66 48 -104 54 -341 58 -202 4 -229 2 -260 -14z m460 -138 c37 -19 50
-43 50 -95 0 -95 -34 -110 -245 -110 l-155 0 0 110 0 110 160 0 c124 0 168 -3
190 -15z m25 -357 c38 -21 60 -59 60 -108 0 -49 -19 -82 -58 -105 -28 -17 -54
-19 -202 -20 l-170 0 -3 128 -3 129 173 -4 c138 -2 179 -6 203 -20z"/>
<path d="M7801 4263 c-22 -18 -22 -20 -19 -390 3 -357 4 -373 24 -399 51 -69
50 -69 325 -72 187 -2 254 0 265 9 11 9 14 28 12 68 l-3 56 -218 5 c-202 5
-220 7 -233 24 -11 16 -14 81 -14 352 0 333 0 333 -22 348 -30 21 -91 20 -117
-1z"/>
<path d="M8562 4264 l-22 -15 0 -408 c0 -464 -4 -441 83 -441 81 0 77 -22 77
440 l0 409 -22 15 c-12 9 -38 16 -58 16 -20 0 -46 -7 -58 -16z"/>
<path d="M8836 4265 c-14 -14 -12 -25 18 -108 77 -208 244 -644 259 -673 49
-96 170 -123 248 -56 41 34 58 72 215 486 122 324 127 339 109 352 -27 20
-108 18 -134 -3 -15 -12 -63 -129 -149 -363 -78 -211 -133 -345 -141 -345 -14
0 -38 61 -177 445 -97 267 -105 280 -184 280 -30 0 -54 -6 -64 -15z"/>
<path d="M9860 4273 c-39 -14 -40 -25 -40 -433 0 -455 -3 -440 79 -440 92 0
86 -28 85 439 -1 393 -2 412 -20 426 -19 14 -75 19 -104 8z"/>
<path d="M11288 4255 c-19 -13 -41 -39 -47 -56 -7 -21 -11 -157 -11 -404 0
-310 2 -375 14 -384 8 -7 37 -11 67 -9 45 3 55 7 66 28 9 19 13 109 13 353 0
358 1 365 51 271 14 -27 88 -168 163 -314 153 -296 182 -334 259 -345 93 -14
160 33 177 124 5 30 10 204 10 387 0 321 -1 335 -20 354 -14 14 -33 20 -62 20
-77 0 -72 20 -78 -361 -3 -237 -8 -343 -16 -346 -6 -2 -44 61 -84 139 -188
371 -273 519 -309 544 -51 34 -142 34 -193 -1z"/>
</g>
</svg>
